<mxfile host="app.diagrams.net" modified="2024-01-29T03:02:44.282Z" agent="Mozilla/5.0 (Windows NT 10.0; Win64; x64) AppleWebKit/537.36 (KHTML, like Gecko) Chrome/120.0.0.0 Safari/537.36" etag="8H-OlZ2_VmK3kZlKOQYF" version="23.0.2" type="github">
  <diagram name="Page-1" id="VqFKuZ6M6xEpTey50HOo">
    <mxGraphModel dx="794" dy="446" grid="1" gridSize="10" guides="1" tooltips="1" connect="1" arrows="1" fold="1" page="1" pageScale="1" pageWidth="1169" pageHeight="827" math="0" shadow="0">
      <root>
        <mxCell id="0" />
        <mxCell id="1" parent="0" />
        <mxCell id="zwj9NtNdcxDIi2fRELhe-1" value="Prepaid Card Process" style="swimlane;childLayout=stackLayout;resizeParent=1;resizeParentMax=0;startSize=20;html=1;" vertex="1" parent="1">
          <mxGeometry x="80.00000000000045" y="50" width="630" height="630" as="geometry" />
        </mxCell>
        <mxCell id="zwj9NtNdcxDIi2fRELhe-2" value="Cards Issuer" style="swimlane;startSize=20;html=1;" vertex="1" parent="zwj9NtNdcxDIi2fRELhe-1">
          <mxGeometry y="20" width="260" height="610" as="geometry" />
        </mxCell>
        <mxCell id="zwj9NtNdcxDIi2fRELhe-5" value="Prepaid Cards&lt;br&gt;Agreement&lt;br&gt;for Merchants" style="strokeWidth=2;html=1;shape=mxgraph.flowchart.document2;whiteSpace=wrap;size=0.25;" vertex="1" parent="zwj9NtNdcxDIi2fRELhe-2">
          <mxGeometry x="130" y="50" width="100" height="80" as="geometry" />
        </mxCell>
        <mxCell id="zwj9NtNdcxDIi2fRELhe-9" value="Release&lt;br&gt;Prepaid Cards" style="rounded=1;whiteSpace=wrap;html=1;absoluteArcSize=1;arcSize=14;strokeWidth=2;" vertex="1" parent="zwj9NtNdcxDIi2fRELhe-2">
          <mxGeometry x="129.99999999999955" y="170" width="100" height="100" as="geometry" />
        </mxCell>
        <mxCell id="zwj9NtNdcxDIi2fRELhe-21" style="edgeStyle=orthogonalEdgeStyle;rounded=0;orthogonalLoop=1;jettySize=auto;html=1;exitX=1;exitY=0.5;exitDx=0;exitDy=0;exitPerimeter=0;entryX=0;entryY=0.5;entryDx=0;entryDy=0;" edge="1" parent="zwj9NtNdcxDIi2fRELhe-2" source="zwj9NtNdcxDIi2fRELhe-10" target="zwj9NtNdcxDIi2fRELhe-9">
          <mxGeometry relative="1" as="geometry" />
        </mxCell>
        <mxCell id="zwj9NtNdcxDIi2fRELhe-10" value="Prepaid Cards&lt;br&gt;Agreement&lt;br&gt;for Consumers" style="strokeWidth=2;html=1;shape=mxgraph.flowchart.document2;whiteSpace=wrap;size=0.25;" vertex="1" parent="zwj9NtNdcxDIi2fRELhe-2">
          <mxGeometry x="10" y="180" width="100" height="80" as="geometry" />
        </mxCell>
        <mxCell id="zwj9NtNdcxDIi2fRELhe-15" value="Start" style="strokeWidth=2;html=1;shape=mxgraph.flowchart.terminator;whiteSpace=wrap;" vertex="1" parent="zwj9NtNdcxDIi2fRELhe-2">
          <mxGeometry x="9.999999999999545" y="60" width="100" height="60" as="geometry" />
        </mxCell>
        <mxCell id="zwj9NtNdcxDIi2fRELhe-16" value="Withdraw to&lt;br&gt;merchants" style="rounded=1;whiteSpace=wrap;html=1;absoluteArcSize=1;arcSize=14;strokeWidth=2;" vertex="1" parent="zwj9NtNdcxDIi2fRELhe-2">
          <mxGeometry x="129.99999999999955" y="440" width="100" height="100" as="geometry" />
        </mxCell>
        <mxCell id="zwj9NtNdcxDIi2fRELhe-17" value="End" style="strokeWidth=2;html=1;shape=mxgraph.flowchart.terminator;whiteSpace=wrap;" vertex="1" parent="zwj9NtNdcxDIi2fRELhe-2">
          <mxGeometry x="9.999999999999545" y="460" width="100" height="60" as="geometry" />
        </mxCell>
        <mxCell id="zwj9NtNdcxDIi2fRELhe-18" style="edgeStyle=orthogonalEdgeStyle;rounded=0;orthogonalLoop=1;jettySize=auto;html=1;exitX=1;exitY=0.5;exitDx=0;exitDy=0;exitPerimeter=0;entryX=0;entryY=0.5;entryDx=0;entryDy=0;entryPerimeter=0;" edge="1" parent="zwj9NtNdcxDIi2fRELhe-2" source="zwj9NtNdcxDIi2fRELhe-15" target="zwj9NtNdcxDIi2fRELhe-5">
          <mxGeometry relative="1" as="geometry" />
        </mxCell>
        <mxCell id="zwj9NtNdcxDIi2fRELhe-27" style="edgeStyle=orthogonalEdgeStyle;rounded=0;orthogonalLoop=1;jettySize=auto;html=1;exitX=0;exitY=0.5;exitDx=0;exitDy=0;entryX=1;entryY=0.5;entryDx=0;entryDy=0;entryPerimeter=0;" edge="1" parent="zwj9NtNdcxDIi2fRELhe-2" source="zwj9NtNdcxDIi2fRELhe-16" target="zwj9NtNdcxDIi2fRELhe-17">
          <mxGeometry relative="1" as="geometry" />
        </mxCell>
        <mxCell id="zwj9NtNdcxDIi2fRELhe-3" value="Agreed Merchants" style="swimlane;startSize=20;html=1;" vertex="1" parent="zwj9NtNdcxDIi2fRELhe-1">
          <mxGeometry x="260" y="20" width="180" height="610" as="geometry" />
        </mxCell>
        <mxCell id="zwj9NtNdcxDIi2fRELhe-8" value="agreement&lt;br&gt;sign off" style="rounded=1;whiteSpace=wrap;html=1;absoluteArcSize=1;arcSize=14;strokeWidth=2;" vertex="1" parent="zwj9NtNdcxDIi2fRELhe-3">
          <mxGeometry x="39.999999999999545" y="40" width="100" height="100" as="geometry" />
        </mxCell>
        <mxCell id="zwj9NtNdcxDIi2fRELhe-25" style="edgeStyle=orthogonalEdgeStyle;rounded=0;orthogonalLoop=1;jettySize=auto;html=1;entryX=0.5;entryY=0;entryDx=0;entryDy=0;" edge="1" parent="zwj9NtNdcxDIi2fRELhe-3" source="zwj9NtNdcxDIi2fRELhe-13" target="zwj9NtNdcxDIi2fRELhe-14">
          <mxGeometry relative="1" as="geometry" />
        </mxCell>
        <mxCell id="zwj9NtNdcxDIi2fRELhe-13" value="Transaction&lt;br&gt;with&lt;br&gt;Prepaid Cards" style="rounded=1;whiteSpace=wrap;html=1;absoluteArcSize=1;arcSize=14;strokeWidth=2;" vertex="1" parent="zwj9NtNdcxDIi2fRELhe-3">
          <mxGeometry x="39.999999999999545" y="300" width="100" height="100" as="geometry" />
        </mxCell>
        <mxCell id="zwj9NtNdcxDIi2fRELhe-14" value="Request to&lt;br&gt;withdraw" style="rounded=1;whiteSpace=wrap;html=1;absoluteArcSize=1;arcSize=14;strokeWidth=2;" vertex="1" parent="zwj9NtNdcxDIi2fRELhe-3">
          <mxGeometry x="39.999999999999545" y="440" width="100" height="100" as="geometry" />
        </mxCell>
        <mxCell id="zwj9NtNdcxDIi2fRELhe-4" value="Consumers" style="swimlane;startSize=20;html=1;" vertex="1" parent="zwj9NtNdcxDIi2fRELhe-1">
          <mxGeometry x="440" y="20" width="190" height="610" as="geometry" />
        </mxCell>
        <mxCell id="zwj9NtNdcxDIi2fRELhe-23" style="edgeStyle=orthogonalEdgeStyle;rounded=0;orthogonalLoop=1;jettySize=auto;html=1;exitX=0.5;exitY=1;exitDx=0;exitDy=0;entryX=0.5;entryY=0;entryDx=0;entryDy=0;" edge="1" parent="zwj9NtNdcxDIi2fRELhe-4" source="zwj9NtNdcxDIi2fRELhe-11" target="zwj9NtNdcxDIi2fRELhe-12">
          <mxGeometry relative="1" as="geometry" />
        </mxCell>
        <mxCell id="zwj9NtNdcxDIi2fRELhe-11" value="Buy&lt;br&gt;Prepaid Cards&lt;br&gt;with agreement" style="rounded=1;whiteSpace=wrap;html=1;absoluteArcSize=1;arcSize=14;strokeWidth=2;" vertex="1" parent="zwj9NtNdcxDIi2fRELhe-4">
          <mxGeometry x="44.999999999999545" y="170" width="100" height="100" as="geometry" />
        </mxCell>
        <mxCell id="zwj9NtNdcxDIi2fRELhe-12" value="Consume&lt;br&gt;with&lt;br&gt;Prepaid Cards" style="rounded=1;whiteSpace=wrap;html=1;absoluteArcSize=1;arcSize=14;strokeWidth=2;" vertex="1" parent="zwj9NtNdcxDIi2fRELhe-4">
          <mxGeometry x="44.999999999999545" y="300" width="100" height="100" as="geometry" />
        </mxCell>
        <mxCell id="zwj9NtNdcxDIi2fRELhe-19" style="edgeStyle=orthogonalEdgeStyle;rounded=0;orthogonalLoop=1;jettySize=auto;html=1;exitX=1;exitY=0.5;exitDx=0;exitDy=0;exitPerimeter=0;entryX=0;entryY=0.5;entryDx=0;entryDy=0;" edge="1" parent="zwj9NtNdcxDIi2fRELhe-1" source="zwj9NtNdcxDIi2fRELhe-5" target="zwj9NtNdcxDIi2fRELhe-8">
          <mxGeometry relative="1" as="geometry" />
        </mxCell>
        <mxCell id="zwj9NtNdcxDIi2fRELhe-20" style="edgeStyle=orthogonalEdgeStyle;rounded=0;orthogonalLoop=1;jettySize=auto;html=1;entryX=0.5;entryY=0;entryDx=0;entryDy=0;" edge="1" parent="zwj9NtNdcxDIi2fRELhe-1" source="zwj9NtNdcxDIi2fRELhe-8" target="zwj9NtNdcxDIi2fRELhe-9">
          <mxGeometry relative="1" as="geometry">
            <Array as="points">
              <mxPoint x="350" y="170" />
              <mxPoint x="180" y="170" />
            </Array>
          </mxGeometry>
        </mxCell>
        <mxCell id="zwj9NtNdcxDIi2fRELhe-22" style="edgeStyle=orthogonalEdgeStyle;rounded=0;orthogonalLoop=1;jettySize=auto;html=1;entryX=0;entryY=0.5;entryDx=0;entryDy=0;" edge="1" parent="zwj9NtNdcxDIi2fRELhe-1" source="zwj9NtNdcxDIi2fRELhe-9" target="zwj9NtNdcxDIi2fRELhe-11">
          <mxGeometry relative="1" as="geometry" />
        </mxCell>
        <mxCell id="zwj9NtNdcxDIi2fRELhe-24" style="edgeStyle=orthogonalEdgeStyle;rounded=0;orthogonalLoop=1;jettySize=auto;html=1;entryX=1;entryY=0.5;entryDx=0;entryDy=0;" edge="1" parent="zwj9NtNdcxDIi2fRELhe-1" source="zwj9NtNdcxDIi2fRELhe-12" target="zwj9NtNdcxDIi2fRELhe-13">
          <mxGeometry relative="1" as="geometry" />
        </mxCell>
        <mxCell id="zwj9NtNdcxDIi2fRELhe-26" style="edgeStyle=orthogonalEdgeStyle;rounded=0;orthogonalLoop=1;jettySize=auto;html=1;entryX=1;entryY=0.5;entryDx=0;entryDy=0;" edge="1" parent="zwj9NtNdcxDIi2fRELhe-1" source="zwj9NtNdcxDIi2fRELhe-14" target="zwj9NtNdcxDIi2fRELhe-16">
          <mxGeometry relative="1" as="geometry" />
        </mxCell>
      </root>
    </mxGraphModel>
  </diagram>
</mxfile>
